<?xml version="1.0" encoding="UTF-8"?>
<svg xmlns="http://www.w3.org/2000/svg" width="1200" height="720" viewBox="0 0 1200 720" preserveAspectRatio="xMidYMid slice">
  <defs>
    <linearGradient id="g" x1="0" y1="0" x2="1" y2="1">
      <stop offset="0%" stop-color="#06b6d4"/>
      <stop offset="100%" stop-color="#2563eb"/>
    </linearGradient>
  </defs>
  <rect width="1200" height="720" rx="12" fill="url(#g)" />
  <g transform="translate(80,120)" fill="#fff" opacity="0.95">
    <rect x="0" y="0" width="480" height="480" rx="10" fill="#063f5e"/>
    <g transform="translate(40,40)" fill="#e0f2fe">
      <rect x="0" y="0" width="400" height="40" rx="6"/>
      <rect x="0" y="70" width="360" height="28" rx="6"/>
      <rect x="0" y="112" width="300" height="28" rx="6"/>
      <rect x="0" y="154" width="180" height="28" rx="6"/>
    </g>
    <g transform="translate(560,60)">
      <rect x="0" y="0" width="520" height="360" rx="10" fill="#0b74b6"/>
      <text x="40" y="90" fill="#bff0ff" font-size="44" font-family="Arial, Helvetica, sans-serif">Learn to Code</text>
      <g transform="translate(40,130)" fill="#e0f2fe">
        <path d="M0 40h28l20-25-20-25H0v50z" />
        <path d="M88 40h120v-8H96v-12h96v-8H96V8H88v32z" />
      </g>
    </g>
  </g>
</svg>
